<svg id="Layer_1" enable-background="new 0 0 256 256" height="512" viewBox="0 0 256 256" width="512" xmlns="http://www.w3.org/2000/svg"><path d="m178 68h-32.325c3.493 0 6.325 2.832 6.325 6.325v143.351c0 3.493-2.832 6.325-6.325 6.325h32.325c5.523 0 10-4.477 10-10v-136.001c0-5.523-4.477-10-10-10z" fill="#d3ba2a"/><path d="m104 217.675v-143.35c0-3.493 2.832-6.325 6.325-6.325h-32.325c-5.523 0-10 4.477-10 10v136c0 5.523 4.477 10 10 10h32.325c-3.493 0-6.325-2.832-6.325-6.325z" fill="#ede49d"/><path d="m152 217.675v-143.35c0-3.493-2.832-6.325-6.325-6.325h-35.351c-3.493 0-6.325 2.832-6.325 6.325v143.351c0 3.493 2.832 6.325 6.325 6.325h35.351c3.493-.001 6.325-2.833 6.325-6.326z" fill="#eee045"/><path d="m178 227h-100c-7.168 0-13-5.832-13-13v-136c0-7.168 5.832-13 13-13h100c7.168 0 13 5.832 13 13v136c0 7.168-5.832 13-13 13zm-100-156c-3.859 0-7 3.14-7 7v136c0 3.86 3.141 7 7 7h100c3.859 0 7-3.14 7-7v-136c0-3.86-3.141-7-7-7z" fill="#1c2d6b"/><path d="m116 76.164v-8.164h-23.997v3.937c0 5.523 4.477 10 10 10h19.771c-3.189 0-5.774-2.585-5.774-5.773z" fill="#a4d4a0"/><path d="m140 68v8.164c0 3.189-2.585 5.774-5.774 5.774h19.771c5.523 0 10-4.477 10-10v-3.938z" fill="#419b46"/><path d="m140 76.164v-8.164h-24v8.164c0 3.189 2.585 5.774 5.774 5.774h12.453c3.188-.001 5.773-2.586 5.773-5.774z" fill="#65bc49"/><path d="m153.997 84.938h-51.994c-7.168 0-13-5.832-13-13v-3.938c0-1.657 1.343-3 3-3h71.994c1.657 0 3 1.343 3 3v3.938c0 7.168-5.832 13-13 13zm-58.994-13.938v.938c0 3.86 3.141 7 7 7h51.994c3.859 0 7-3.14 7-7v-.938z" fill="#1c2d6b"/><path d="m164 71c-1.657 0-3-1.343-3-3v-27h-65.997v27c0 1.657-1.343 3-3 3s-3-1.343-3-3v-30c0-1.657 1.343-3 3-3h71.997c1.657 0 3 1.343 3 3v30c0 1.657-1.343 3-3 3z" fill="#1c2d6b"/><path d="m118.949 20h-21.949c-2.761 0-5 2.239-5 5v13h24.071v-15.122c0-1.589 1.288-2.878 2.878-2.878z" fill="#ef7f72"/><path d="m159 20h-21.949c1.59 0 2.878 1.289 2.878 2.878v15.122h24.071v-13c0-2.761-2.239-5-5-5z" fill="#e8383b"/><path d="m137.051 20h-18.103c-1.59 0-2.878 1.289-2.878 2.878v15.122h23.859v-15.122c0-1.589-1.288-2.878-2.878-2.878z" fill="#e95947"/><g fill="#1c2d6b"><path d="m164 41h-72c-1.657 0-3-1.343-3-3v-13c0-4.411 3.589-8 8-8h62c4.411 0 8 3.589 8 8v13c0 1.657-1.343 3-3 3zm-69-6h66v-10c0-1.103-.897-2-2-2h-62c-1.103 0-2 .897-2 2z"/><path d="m92 203c-1.657 0-3-1.343-3-3v-102c0-1.657 1.343-3 3-3s3 1.343 3 3v102c0 1.657-1.343 3-3 3z"/><path d="m116 203c-1.657 0-3-1.343-3-3v-102c0-1.657 1.343-3 3-3s3 1.343 3 3v102c0 1.657-1.343 3-3 3z"/><path d="m140 203c-1.657 0-3-1.343-3-3v-102c0-1.657 1.343-3 3-3s3 1.343 3 3v102c0 1.657-1.343 3-3 3z"/><path d="m164 203c-1.657 0-3-1.343-3-3v-102c0-1.657 1.343-3 3-3s3 1.343 3 3v102c0 1.657-1.343 3-3 3z"/></g><path d="m90.965 234.965v-10.965h-4.965v6c0 3.314 2.686 6 6 6-.572 0-1.035-.463-1.035-1.035z" fill="#89aadb"/><path d="m93.035 224v10.965c0 .572-.463 1.035-1.035 1.035 3.314 0 6-2.686 6-6v-6z" fill="#4b67b0"/><path d="m93.035 234.965v-10.965h-2.07v10.965c0 .572.463 1.035 1.035 1.035s1.035-.463 1.035-1.035z" fill="#6287c5"/><path d="m162.965 234.965v-10.965h-4.965v6c0 3.314 2.686 6 6 6-.572 0-1.035-.463-1.035-1.035z" fill="#89aadb"/><path d="m165.035 224v10.965c0 .572-.463 1.035-1.035 1.035 3.314 0 6-2.686 6-6v-6z" fill="#4b67b0"/><path d="m165.035 234.965v-10.965h-2.07v10.965c0 .572.463 1.035 1.035 1.035s1.035-.463 1.035-1.035z" fill="#6287c5"/><path d="m92 239c-4.963 0-9-4.038-9-9v-6c0-1.657 1.343-3 3-3h12c1.657 0 3 1.343 3 3v6c0 4.962-4.037 9-9 9zm-3-12v3c0 1.654 1.346 3 3 3s3-1.346 3-3v-3z" fill="#1c2d6b"/><path d="m164 239c-4.963 0-9-4.038-9-9v-6c0-1.657 1.343-3 3-3h12c1.657 0 3 1.343 3 3v6c0 4.962-4.037 9-9 9zm-3-12v3c0 1.654 1.346 3 3 3s3-1.346 3-3v-3z" fill="#1c2d6b"/></svg>